<?xml version="1.0" encoding="UTF-8" standalone="no"?>
<!-- Created with Inkscape (http://www.inkscape.org/) -->

<svg
   xmlns:dc="http://purl.org/dc/elements/1.1/"
   xmlns:cc="http://creativecommons.org/ns#"
   xmlns:rdf="http://www.w3.org/1999/02/22-rdf-syntax-ns#"
   xmlns:svg="http://www.w3.org/2000/svg"
   xmlns="http://www.w3.org/2000/svg"
   xmlns:sodipodi="http://sodipodi.sourceforge.net/DTD/sodipodi-0.dtd"
   xmlns:inkscape="http://www.inkscape.org/namespaces/inkscape"
   width="440"
   height="750"
   id="svg2"
   version="1.1"
   inkscape:version="0.48.4 r9939"
   sodipodi:docname="redPoundPin.svg">
  <defs
     id="defs4" />
  <sodipodi:namedview
     id="base"
     pagecolor="#ffffff"
     bordercolor="#666666"
     borderopacity="1.0"
     inkscape:pageopacity="0.0"
     inkscape:pageshadow="2"
     inkscape:zoom="0.49497475"
     inkscape:cx="166.01786"
     inkscape:cy="388.40151"
     inkscape:document-units="px"
     inkscape:current-layer="layer1"
     showgrid="true"
     inkscape:snap-global="true"
     inkscape:window-width="1366"
     inkscape:window-height="705"
     inkscape:window-x="-8"
     inkscape:window-y="-8"
     inkscape:window-maximized="1"
     fit-margin-top="0"
     fit-margin-left="0"
     fit-margin-right="0"
     fit-margin-bottom="0">
    <inkscape:grid
       type="xygrid"
       id="grid3757"
       empspacing="5"
       visible="true"
       enabled="true"
       snapvisiblegridlinesonly="true"
       originx="-120px"
       originy="-250.10153px" />
  </sodipodi:namedview>
  <metadata
     id="metadata7">
    <rdf:RDF>
      <cc:Work
         rdf:about="">
        <dc:format>image/svg+xml</dc:format>
        <dc:type
           rdf:resource="http://purl.org/dc/dcmitype/StillImage" />
        <dc:title />
      </cc:Work>
    </rdf:RDF>
  </metadata>
  <g
     inkscape:label="Layer 1"
     inkscape:groupmode="layer"
     id="layer1"
     transform="translate(-120,-52.26062)">
    <path
       sodipodi:type="arc"
       style="fill:#e74c3c;fill-opacity:1"
       id="path3759"
       sodipodi:cx="340"
       sodipodi:cy="272.36218"
       sodipodi:rx="220"
       sodipodi:ry="220"
       d="m 560,272.36218 c 0,121.50265 -98.49736,220 -220,220 -121.50264,0 -220,-98.49735 -220,-220 0,-121.50264 98.49736,-219.999997 220,-219.999997 121.50264,0 220,98.497357 220,219.999997 z" />
    <path
       style="fill:#e74c3c;fill-opacity:1;stroke:none"
       d="M 135,352.36218 340,802.26065 545,352.36218 z"
       id="path3761"
       inkscape:connector-curvature="0" />
    <g
       transform="matrix(3.224603,0,0,3.224603,-140.51374,-185.63268)"
       style="font-size:40px;font-style:normal;font-weight:normal;line-height:125%;letter-spacing:0px;word-spacing:0px;fill:#ffffff;fill-opacity:1;stroke:none;font-family:Sans"
       id="flowRoot2985">
      <path
         d="m 177.30469,165.40852 7.59375,16.73437 c -2.67195,1.45313 -5.75398,2.63672 -9.2461,3.55078 -3.49225,0.91407 -6.87896,1.3711 -10.16015,1.3711 -4.21881,0 -9.8438,-0.9961 -16.875,-2.98828 -7.03129,-1.99219 -12.23441,-2.98828 -15.60938,-2.98828 -5.71877,0 -11.5547,2.03906 -17.50781,6.11718 l -7.52344,-17.01562 c 5.29687,-3.79686 9.10546,-7.83982 11.42578,-12.12891 2.3203,-4.28903 3.48046,-8.37887 3.48047,-12.26953 -1e-5,-1.26558 -0.0938,-2.60152 -0.28125,-4.00781 l -14.625,0 0,-15.53906 11.03907,0 c -1.92189,-5.53119 -2.88283,-11.13275 -2.88282,-16.80469 -1e-5,-5.1093 1.39452,-9.984291 4.1836,-14.625002 2.78904,-4.64053 6.73826,-8.16787 11.84765,-10.582031 5.10935,-2.413959 10.68747,-3.620989 16.73438,-3.621094 9.23432,1.05e-4 16.59369,2.332134 22.07812,6.996094 5.48431,4.664156 8.83587,11.355555 10.05469,20.074223 l -19.05469,2.8125 c -0.89068,-5.01555 -2.50786,-8.62492 -4.85156,-10.828129 -2.3438,-2.203037 -5.27348,-3.304599 -8.78906,-3.304688 -3.75004,8.9e-5 -6.86722,1.253994 -9.35157,3.761717 -2.4844,2.5079 -3.72659,5.66024 -3.72656,9.45703 -3e-5,1.96883 0.33982,4.57039 1.01953,7.80469 0.67966,3.23444 1.51169,6.18756 2.4961,8.85938 l 21.9375,0 0,15.53906 -18.70313,0 c 0.14059,1.03129 0.2109,2.06254 0.21094,3.09375 -4e-5,3.70316 -0.70316,7.12503 -2.10938,10.26562 -1.40628,3.14066 -4.28909,7.26565 -8.64843,12.375 2.5781,-1.31248 5.81247,-1.96873 9.70312,-1.96875 1.64059,2e-5 3.11715,0.0938 4.42969,0.28125 0.65621,0.0938 2.57808,0.53908 5.76562,1.33594 5.67183,1.45314 9.53901,2.1797 11.60157,2.17969 3.65619,1e-5 8.43743,-1.31248 14.34375,-3.9375 z"
         style="font-size:144px;font-variant:normal;font-weight:bold;font-stretch:normal;font-family:Arial;-inkscape-font-specification:Arial Bold;fill:#ffffff;fill-opacity:1"
         id="path2993" />
    </g>
  </g>
</svg>
