<?xml version="1.0" encoding="UTF-8" standalone="no"?>
<!-- Created with Inkscape (http://www.inkscape.org/) -->

<svg
   xmlns:dc="http://purl.org/dc/elements/1.1/"
   xmlns:cc="http://creativecommons.org/ns#"
   xmlns:rdf="http://www.w3.org/1999/02/22-rdf-syntax-ns#"
   xmlns:svg="http://www.w3.org/2000/svg"
   xmlns="http://www.w3.org/2000/svg"
   xmlns:sodipodi="http://sodipodi.sourceforge.net/DTD/sodipodi-0.dtd"
   xmlns:inkscape="http://www.inkscape.org/namespaces/inkscape"
   width="440"
   height="750"
   id="svg2"
   version="1.1"
   inkscape:version="0.48.4 r9939"
   sodipodi:docname="blueTeePin.svg">
  <defs
     id="defs4" />
  <sodipodi:namedview
     id="base"
     pagecolor="#ffffff"
     bordercolor="#666666"
     borderopacity="1.0"
     inkscape:pageopacity="0.0"
     inkscape:pageshadow="2"
     inkscape:zoom="0.12374369"
     inkscape:cx="-96.300976"
     inkscape:cy="468.42339"
     inkscape:document-units="px"
     inkscape:current-layer="layer1"
     showgrid="true"
     inkscape:snap-global="true"
     inkscape:window-width="1366"
     inkscape:window-height="705"
     inkscape:window-x="-8"
     inkscape:window-y="-8"
     inkscape:window-maximized="1"
     fit-margin-top="0"
     fit-margin-left="0"
     fit-margin-right="0"
     fit-margin-bottom="0">
    <inkscape:grid
       type="xygrid"
       id="grid3757"
       empspacing="5"
       visible="true"
       enabled="true"
       snapvisiblegridlinesonly="true"
       originx="-120px"
       originy="-250.10153px" />
  </sodipodi:namedview>
  <metadata
     id="metadata7">
    <rdf:RDF>
      <cc:Work
         rdf:about="">
        <dc:format>image/svg+xml</dc:format>
        <dc:type
           rdf:resource="http://purl.org/dc/dcmitype/StillImage" />
        <dc:title></dc:title>
      </cc:Work>
    </rdf:RDF>
  </metadata>
  <g
     inkscape:label="Layer 1"
     inkscape:groupmode="layer"
     id="layer1"
     transform="translate(-120,-52.26062)">
    <path
       sodipodi:type="arc"
       style="fill:#e74c3c;fill-opacity:1"
       id="path3759"
       sodipodi:cx="340"
       sodipodi:cy="272.36218"
       sodipodi:rx="220"
       sodipodi:ry="220"
       d="m 560,272.36218 c 0,121.50265 -98.49736,220 -220,220 -121.50264,0 -220,-98.49735 -220,-220 0,-121.50264 98.49736,-219.999997 220,-219.999997 121.50264,0 220,98.497357 220,219.999997 z" />
    <path
       style="fill:#e74c3c;fill-opacity:1;stroke:none"
       d="M 135,352.36218 340,802.26065 545,352.36218 z"
       id="path3761"
       inkscape:connector-curvature="0" />
    <g
       id="g3475"
       transform="matrix(1.3636364,0,0,1.3636364,-123.5251,-27.723264)">
      <rect
         y="127.36262"
         x="237.5"
         height="5"
         width="5.0000005"
         id="rect3263"
         style="fill:#ffffff;fill-opacity:1;stroke:none" />
      <rect
         y="122.36261"
         x="242.5"
         height="5"
         width="5.0000005"
         id="rect3265"
         style="fill:#ffffff;fill-opacity:1;stroke:none" />
      <rect
         y="122.36215"
         x="432.50046"
         height="5"
         width="5.0000005"
         id="rect3343"
         style="fill:#ffffff;fill-opacity:1;stroke:none" />
      <rect
         y="127.36215"
         x="437.50046"
         height="5"
         width="5.0000005"
         id="rect3345"
         style="fill:#ffffff;fill-opacity:1;stroke:none" />
      <g
         id="g3422">
        <rect
           style="fill:#ffffff;fill-opacity:1;stroke:none"
           id="rect3359"
           width="5"
           height="5"
           x="357.5"
           y="102.36214" />
        <g
           id="g3371"
           transform="translate(22.5,0)">
          <rect
             transform="translate(120,52.26062)"
             y="255.10153"
             x="135"
             height="4.9999981"
             width="125"
             id="rect3237"
             style="fill:#ffffff;fill-opacity:1;stroke:none" />
          <rect
             transform="translate(120,52.26062)"
             y="100.10153"
             x="130"
             height="155"
             width="5"
             id="rect3239"
             style="fill:#ffffff;fill-opacity:1;stroke:none" />
          <rect
             transform="translate(120,52.26062)"
             y="95.101532"
             x="125"
             height="5"
             width="5"
             id="rect3243"
             style="fill:#ffffff;fill-opacity:1;stroke:none" />
          <rect
             transform="translate(120,52.26062)"
             y="100.10153"
             x="120"
             height="5"
             width="5"
             id="rect3245"
             style="fill:#ffffff;fill-opacity:1;stroke:none" />
          <rect
             transform="translate(120,52.26062)"
             y="105.10153"
             x="115"
             height="5"
             width="5"
             id="rect3247"
             style="fill:#ffffff;fill-opacity:1;stroke:none" />
          <rect
             transform="translate(120,52.26062)"
             y="110.10153"
             x="110"
             height="5"
             width="5"
             id="rect3249"
             style="fill:#ffffff;fill-opacity:1;stroke:none" />
          <rect
             transform="translate(120,52.26062)"
             y="115.10153"
             x="105"
             height="5"
             width="5"
             id="rect3251"
             style="fill:#ffffff;fill-opacity:1;stroke:none" />
          <rect
             transform="translate(120,52.26062)"
             y="110.10153"
             x="100"
             height="5"
             width="5"
             id="rect3253"
             style="fill:#ffffff;fill-opacity:1;stroke:none" />
          <rect
             transform="translate(120,52.26062)"
             y="105.10153"
             x="95"
             height="5"
             width="5"
             id="rect3255"
             style="fill:#ffffff;fill-opacity:1;stroke:none" />
          <rect
             transform="translate(120,52.26062)"
             y="100.10153"
             x="90"
             height="5"
             width="5"
             id="rect3257"
             style="fill:#ffffff;fill-opacity:1;stroke:none" />
          <rect
             y="137.36263"
             x="205"
             height="5"
             width="5"
             id="rect3259"
             style="fill:#ffffff;fill-opacity:1;stroke:none" />
          <rect
             y="132.36263"
             x="210"
             height="5"
             width="5"
             id="rect3261"
             style="fill:#ffffff;fill-opacity:1;stroke:none" />
          <rect
             y="117.36261"
             x="225"
             height="5"
             width="5"
             id="rect3267"
             style="fill:#ffffff;fill-opacity:1;stroke:none" />
          <rect
             transform="translate(120,52.26062)"
             y="95.101532"
             x="85"
             height="5"
             width="5"
             id="rect3273"
             style="fill:#ffffff;fill-opacity:1;stroke:none" />
          <rect
             transform="translate(120,52.26062)"
             y="90.101532"
             x="80"
             height="5"
             width="5"
             id="rect3275"
             style="fill:#ffffff;fill-opacity:1;stroke:none" />
          <rect
             transform="translate(120,52.26062)"
             y="60.101528"
             x="110"
             height="5"
             width="5"
             id="rect3277"
             style="fill:#ffffff;fill-opacity:1;stroke:none" />
          <rect
             transform="translate(120,52.26062)"
             y="55.101528"
             x="115"
             height="5"
             width="5"
             id="rect3279"
             style="fill:#ffffff;fill-opacity:1;stroke:none" />
          <rect
             transform="translate(120,52.26062)"
             y="50.101528"
             x="120"
             height="5"
             width="5"
             id="rect3281"
             style="fill:#ffffff;fill-opacity:1;stroke:none" />
          <rect
             transform="translate(120,52.26062)"
             y="45.101528"
             x="125"
             height="5"
             width="5"
             id="rect3283"
             style="fill:#ffffff;fill-opacity:1;stroke:none" />
          <rect
             transform="translate(120,52.26062)"
             y="40.101528"
             x="130"
             height="5.0000019"
             width="40"
             id="rect3285"
             style="fill:#ffffff;fill-opacity:1;stroke:none" />
          <rect
             transform="translate(120,52.26062)"
             y="100.10153"
             x="260"
             height="155"
             width="5"
             id="rect3307"
             style="fill:#ffffff;fill-opacity:1;stroke:none" />
          <rect
             transform="translate(120,52.26062)"
             y="40.101528"
             x="225"
             height="4.9999733"
             width="39.999969"
             id="rect3309"
             style="fill:#ffffff;fill-opacity:1;stroke:none" />
          <rect
             transform="translate(120,52.26062)"
             y="45.101528"
             x="265"
             height="5"
             width="5"
             id="rect3311"
             style="fill:#ffffff;fill-opacity:1;stroke:none" />
          <rect
             transform="translate(120,52.26062)"
             y="50.101528"
             x="270"
             height="5"
             width="5"
             id="rect3313"
             style="fill:#ffffff;fill-opacity:1;stroke:none" />
          <rect
             transform="translate(120,52.26062)"
             y="55.101528"
             x="275"
             height="5"
             width="5"
             id="rect3315"
             style="fill:#ffffff;fill-opacity:1;stroke:none" />
          <rect
             transform="translate(120,52.26062)"
             y="60.101528"
             x="280"
             height="5"
             width="5"
             id="rect3317"
             style="fill:#ffffff;fill-opacity:1;stroke:none" />
          <rect
             transform="translate(120,52.26062)"
             y="95.101532"
             x="265"
             height="4.9999981"
             width="5"
             id="rect3319"
             style="fill:#ffffff;fill-opacity:1;stroke:none" />
          <rect
             transform="translate(120,52.26062)"
             y="100.10153"
             x="270"
             height="5"
             width="5"
             id="rect3321"
             style="fill:#ffffff;fill-opacity:1;stroke:none" />
          <rect
             transform="translate(120,52.26062)"
             y="105.10153"
             x="275"
             height="5"
             width="5"
             id="rect3323"
             style="fill:#ffffff;fill-opacity:1;stroke:none" />
          <rect
             transform="translate(120,52.26062)"
             y="110.10153"
             x="280"
             height="5"
             width="5"
             id="rect3325"
             style="fill:#ffffff;fill-opacity:1;stroke:none" />
          <rect
             transform="translate(120,52.26062)"
             y="115.10153"
             x="285"
             height="5"
             width="5"
             id="rect3327"
             style="fill:#ffffff;fill-opacity:1;stroke:none" />
          <rect
             transform="translate(120,52.26062)"
             y="110.10153"
             x="290"
             height="5"
             width="5"
             id="rect3329"
             style="fill:#ffffff;fill-opacity:1;stroke:none" />
          <rect
             transform="translate(120,52.26062)"
             y="105.10153"
             x="295"
             height="5"
             width="5"
             id="rect3331"
             style="fill:#ffffff;fill-opacity:1;stroke:none" />
          <rect
             transform="translate(120,52.26062)"
             y="100.10153"
             x="300"
             height="5"
             width="5"
             id="rect3333"
             style="fill:#ffffff;fill-opacity:1;stroke:none" />
          <rect
             transform="translate(120,52.26062)"
             y="95.101532"
             x="305"
             height="5"
             width="5"
             id="rect3335"
             style="fill:#ffffff;fill-opacity:1;stroke:none" />
          <rect
             transform="translate(120,52.26062)"
             y="90.101532"
             x="310"
             height="5"
             width="5"
             id="rect3337"
             style="fill:#ffffff;fill-opacity:1;stroke:none" />
          <rect
             transform="translate(120,52.26062)"
             y="85.101532"
             x="305"
             height="5"
             width="5"
             id="rect3339"
             style="fill:#ffffff;fill-opacity:1;stroke:none" />
          <rect
             transform="translate(120,52.26062)"
             y="65.101532"
             x="285"
             height="5"
             width="5"
             id="rect3341"
             style="fill:#ffffff;fill-opacity:1;stroke:none" />
          <rect
             transform="translate(120,52.26062)"
             y="80.101532"
             x="300"
             height="5"
             width="5"
             id="rect3347"
             style="fill:#ffffff;fill-opacity:1;stroke:none" />
          <rect
             transform="translate(120,52.26062)"
             y="45.101528"
             x="170"
             height="5"
             width="5"
             id="rect3349"
             style="fill:#ffffff;fill-opacity:1;stroke:none" />
          <rect
             transform="translate(120,52.26062)"
             y="50.101528"
             x="175"
             height="5"
             width="5"
             id="rect3351"
             style="fill:#ffffff;fill-opacity:1;stroke:none" />
          <rect
             transform="translate(120,52.26062)"
             y="55.101528"
             x="180"
             height="5"
             width="5"
             id="rect3353"
             style="fill:#ffffff;fill-opacity:1;stroke:none" />
          <rect
             transform="translate(120,52.26062)"
             y="60.101528"
             x="185"
             height="5"
             width="5"
             id="rect3355"
             style="fill:#ffffff;fill-opacity:1;stroke:none" />
          <rect
             transform="translate(120,52.26062)"
             y="45.101528"
             x="220"
             height="5"
             width="5"
             id="rect3357"
             style="fill:#ffffff;fill-opacity:1;stroke:none" />
          <rect
             transform="translate(120,52.26062)"
             y="55.101528"
             x="210"
             height="5"
             width="5"
             id="rect3361"
             style="fill:#ffffff;fill-opacity:1;stroke:none" />
          <rect
             transform="translate(120,52.26062)"
             y="60.101528"
             x="205"
             height="5"
             width="5"
             id="rect3363"
             style="fill:#ffffff;fill-opacity:1;stroke:none" />
          <rect
             transform="translate(120,52.26062)"
             y="65.101532"
             x="200"
             height="5"
             width="5"
             id="rect3365"
             style="fill:#ffffff;fill-opacity:1;stroke:none" />
          <rect
             transform="translate(120,52.26062)"
             y="70.101532"
             x="195"
             height="5"
             width="5"
             id="rect3367"
             style="fill:#ffffff;fill-opacity:1;stroke:none" />
          <rect
             transform="translate(120,52.26062)"
             y="65.101532"
             x="190"
             height="5"
             width="5"
             id="rect3369"
             style="fill:#ffffff;fill-opacity:1;stroke:none" />
        </g>
      </g>
    </g>
    <path
       style="fill:#ffffff;fill-opacity:1;stroke:none"
       d="m 135.07446,171.72598 0,-43.94164 -3.40926,0 -3.40927,0 0,-3.40926 0,-3.40927 -3.53553,0 -3.53553,0 0,3.40927 0,3.40926 -3.40927,0 -3.40926,0 0,3.40927 0,3.40926 -3.40927,0 -3.40926,0 0,3.40927 0,3.40926 -3.40927,0 -3.40926,0 0,3.40927 0,3.40926 -3.282999,0 -3.282996,0 0,-3.40926 0,-3.40927 -3.409265,0 -3.409265,0 0,-3.40926 0,-3.40927 -3.409264,0 -3.409265,0 0,-3.40926 0,-3.40927 -3.409265,0 -3.409265,0 0,-3.40926 0,-3.40927 -3.409265,0 -3.409264,0 0,-3.40926 0,-3.40927 3.409264,0 3.409265,0 0,-3.40926 0,-3.40927 3.409265,0 3.409265,0 0,-3.40926 0,-3.40927 3.409265,0 3.409264,0 0,-3.409262 0,-3.409265 3.409265,0 3.409265,0 0,-3.409264 0,-3.409265 3.409265,0 3.40926,0 0,-3.409265 0,-3.409265 3.40927,0 3.40926,0 0,-3.409265 0,-3.409265 3.40927,0 3.40926,0 0,-3.409264 0,-3.409265 3.40927,0 3.40926,0 0,-3.409265 0,-3.409265 3.40927,0 3.40926,0 0,-3.409265 0,-3.409265 27.14785,0 27.14785,0 0,3.409265 0,3.409265 3.40927,0 3.40926,0 0,3.409265 0,3.409265 3.40927,0 3.40926,0 0,3.409265 0,3.409264 3.40927,0 3.40926,0 0,3.409265 0,3.409265 3.40927,0 3.40926,0 0,3.409265 0,3.409265 3.40927,0 3.40926,0 0,3.409265 0,3.409264 3.53553,0 3.53554,0 0,-3.409264 0,-3.409265 3.40926,0 3.40927,0 0,-3.409265 0,-3.409265 3.40926,0 3.40927,0 0,-3.409265 0,-3.409265 3.40926,0 3.40927,0 0,-3.409264 0,-3.409265 3.40926,0 3.40927,0 0,-3.409265 0,-3.409265 3.40926,0 3.40927,0 0,-3.409265 0,-3.409265 27.14785,0 27.14785,0 0,3.409265 0,3.409265 3.40926,0 3.40927,0 0,3.409265 0,3.409265 3.40926,0 3.40926,0 0,3.409265 0,3.409264 3.40927,0 3.40926,0 0,3.409265 0,3.409265 3.40927,0 3.40926,0 0,3.409265 0,3.409265 3.40927,0 3.40926,0 0,3.409265 0,3.409264 3.40927,0 3.40926,0 0,3.409265 0,3.409262 3.40927,0 3.40926,0 0,3.40927 0,3.40926 3.40927,0 3.40926,0 0,3.40927 0,3.40926 3.40927,0 3.40926,0 0,3.40927 0,3.40926 -3.40926,0 -3.40927,0 0,3.40927 0,3.40926 -3.40926,0 -3.40927,0 0,3.40927 0,3.40926 -3.40926,0 -3.40927,0 0,3.40927 0,3.40926 -3.40926,0 -3.40927,0 0,3.40927 0,3.40926 -3.28299,0 -3.283,0 0,-3.40926 0,-3.40927 -3.40926,0 -3.40927,0 0,-3.40926 0,-3.40927 -3.40926,0 -3.40927,0 0,-3.40926 0,-3.40927 -3.40926,0 -3.40927,0 0,-3.40926 0,-3.40927 -3.53553,0 -3.53553,0 0,3.40927 0,3.40926 -3.40927,0 -3.40926,0 0,43.94164 0,43.94163 -85.10536,0 -85.10535,0 0,-43.94163 z"
       id="path3830"
       inkscape:connector-curvature="0"
       transform="translate(120,52.26062)" />
    <path
       style="fill:#ffffff;fill-opacity:1;stroke:none"
       d="m 135.07446,277.43498 0,-61.6193 85.10535,0 85.10536,0 0,61.6193 0,61.61931 -85.10536,0 -85.10535,0 0,-61.61931 z"
       id="path3832"
       inkscape:connector-curvature="0"
       transform="translate(120,52.26062)" />
  </g>
</svg>
